<?xml version="1.0" standalone="no"?>
<!DOCTYPE svg PUBLIC "-//W3C//DTD SVG 20010904//EN"
 "http://www.w3.org/TR/2001/REC-SVG-20010904/DTD/svg10.dtd">
<svg version="1.0" xmlns="http://www.w3.org/2000/svg"
 width="16.000000pt" height="16.000000pt" viewBox="0 0 16.000000 16.000000"
 preserveAspectRatio="xMidYMid meet">
<metadata>
Created by potrace 1.11, written by Peter Selinger 2001-2013
</metadata>
<g transform="translate(0.000000,16.000000) scale(0.010390,-0.010390)"
fill="#000000" stroke="none">
<path d="M662 1439 c-140 -21 -269 -87 -372 -189 -77 -78 -131 -166 -167 -275
-33 -101 -37 -262 -9 -365 59 -215 221 -388 435 -464 77 -27 98 -30 206 -31
106 0 130 3 208 29 97 32 182 82 256 151 48 45 108 122 100 129 -2 2 -40 22
-85 44 l-81 41 -54 -55 c-97 -99 -202 -144 -338 -144 -132 0 -229 39 -323 128
-110 104 -154 216 -146 368 4 80 10 103 41 168 87 183 265 288 462 273 38 -3
80 -9 92 -12 20 -6 27 2 65 79 23 47 40 87 37 90 -3 3 -30 12 -60 20 -77 20
-192 26 -267 15z"/>
<path d="M1022 1285 l-42 -84 43 -30 c93 -65 161 -157 191 -260 23 -78 21
-204 -4 -276 -11 -32 -19 -59 -18 -60 2 -2 40 -21 86 -44 l83 -42 15 36 c68
164 62 370 -15 539 -52 114 -167 238 -267 289 l-30 16 -42 -84z"/>
</g>
</svg>
